# xmcd
#
# Track frame offsets: 
#        150
#        14191
#        27275
#        32826
#        43258
#        54713
#        65233
#        76739
#        87014
#        98233
#        111653
#        124349
#        134542
#        145411
#        157157
#        168824
#        181236
#        191723
#        205873
#        216654
#        229097
#        240301
#        251240
#        262714
#
# Disc length: 3617 seconds
#
# Revision: 0
# Processed by: cddbd v1.5.2PL0 Copyright (c) Steve Scherf et al.
# Submitted via: ExactAudioCopy v1.0b3
#
DISCID=6b0e1f18
DTITLE=Various Artist - Best Loved Country
DYEAR=1999
DGENRE=Country
TTITLE0=Rogers, Kenny - Sunshine
TTITLE1=Rogers, Kenny - Ruby Don't Take Your Love To Town
TTITLE2=Nelson, Willie - The Ghost
TTITLE3=Jennings, Waylon - Money (That's What I Want)
TTITLE4=Cline, Patsy - I've Loved And Lost Again
TTITLE5=Rogers, Kenny - Ticket To Nowhere
TTITLE6=Nelson, Willie - Touch Me
TTITLE7=Laine, Frankie - I Believe
TTITLE8=Jennings, Waylon - Sally Was A Good Old Girl
TTITLE9=Rogers, Kenny - Shine On Ruby Mountain
TTITLE10=Young, Farron - It's Four In The Morning
TTITLE11=Perkins, Carl - Daddy Sang Bass
TTITLE12=Mitchell, Guy - Singing The Blues
TTITLE13=Jennings, Waylon - Crying
TTITLE14=Laine, Frankie - Mule Train
TTITLE15=Rogers, Kenny - Reuben James
TTITLE16=Cline, Patsy - Honky Tonk Merry-Go-Round
TTITLE17=Fender, Freddie - Wasted Days And Wasted Nights
TTITLE18=Fender, Freddie - Wild Side Of Life
TTITLE19=Laine, Frankie - High Noon
TTITLE20=Bailey, Razzy - 9,999,999 Years
TTITLE21=Parton, Dolly - (It Wasn't God Who Made) Honky Tonk Angels
TTITLE22=Mitchell, Guy - Heartaches By The Number
TTITLE23=Cline, Patsy - Come On In And Make Yourself At Home
EXTD=
EXTT0=
EXTT1=
EXTT2=
EXTT3=
EXTT4=
EXTT5=
EXTT6=
EXTT7=
EXTT8=
EXTT9=
EXTT10=
EXTT11=
EXTT12=
EXTT13=
EXTT14=
EXTT15=
EXTT16=
EXTT17=
EXTT18=
EXTT19=
EXTT20=
EXTT21=
EXTT22=
EXTT23=
PLAYORDER=
